<svg width="268" height="56" viewBox="0 0 268 56" fill="none" xmlns="http://www.w3.org/2000/svg">
<g clip-path="url(#clip0_39_2008)">
<path d="M267.784 40.2954V40.2074C266.663 34.9725 262.218 24.0628 254.149 6.77455L254.106 6.68657C252.553 3.47526 249.575 1.14375 246.123 0.483896L245.908 0.439906C244.182 0.175962 242.413 0.0439906 240.6 0.175962C238.659 0.307934 236.717 0.615868 234.689 1.23174L234.559 1.27573C232.229 2.02357 230.245 3.47526 228.777 5.49882L228.734 5.54281C227.526 7.25844 226.059 10.1618 224.506 13.5931C224.419 11.2176 223.772 8.8861 222.521 6.81854C220.061 2.72742 215.531 0.131972 210.741 0.131972C209.145 0.131972 207.634 0.395915 206.124 0.923802C203.794 1.71563 201.723 3.21131 200.17 5.1469C195.423 1.8476 190.116 0.219953 184.334 0.219953C180.105 0.219953 175.833 1.14375 171.562 2.90338C169.749 3.65122 168.153 4.79497 166.901 6.24666C162.457 2.3315 156.675 0 150.418 0C142.177 0 134.798 4.04713 130.009 10.3818C124.917 4.75098 116.201 0.0879811 101.358 0.0879811C97.9489 0.0879811 94.7559 1.4077 92.3827 3.82718L92.3395 3.91516C91.3471 4.97093 90.5704 6.11469 90.0095 7.25844C84.7021 3.21131 76.7627 0.219953 64.9398 0.175962C62.1351 0.175962 59.503 1.05577 57.3455 2.68342C55.1017 1.05577 52.3402 0.175962 49.5355 0.175962C46.9897 0.175962 44.5302 0.835821 42.4159 2.15554C41.2077 2.85939 40.1721 3.7392 39.2228 4.79497C38.403 4.09112 37.4968 3.38727 36.4613 2.63943C34.649 1.23174 32.4484 0.527887 30.0752 0.527887C28.004 0.527887 25.9328 1.14375 24.1637 2.28751L23.9911 2.41948C23.8185 2.55145 23.6459 2.68342 23.4302 2.8154C22.5672 2.11155 21.5316 1.53967 20.4529 1.14375C18.7701 0.483896 16.8283 0.175962 14.6709 0.175962C12.2114 0.175962 9.88132 0.571877 8.37109 0.923802C4.22877 1.8476 1.07887 5.36685 0.474782 9.67793V9.72192C-0.474501 17.3763 0.259036 38.9317 0.517932 45.3103C0.690529 49.6654 3.49523 53.4046 7.55126 54.6803C9.44983 55.2962 11.521 55.5601 13.8079 55.5601C16.3537 55.5601 18.5543 55.1642 19.6762 54.9002C21.5316 54.5043 23.1281 53.5805 24.4226 52.3048C24.9404 52.8327 25.415 53.2286 25.7602 53.5365C27.6157 55.1202 29.9889 56 32.4052 56C34.0449 56 35.5551 55.6481 36.9359 54.9002C38.403 54.1524 39.7406 53.2286 40.9488 52.1728C42.0275 53.0086 43.2788 53.7565 44.6596 54.2844C46.3856 54.9882 48.1547 55.2962 49.8807 55.2962C52.3402 55.2962 54.7565 54.6363 56.8709 53.3166C57.9064 53.8885 59.0283 54.3284 60.2796 54.5483H60.3228C63.2138 55.0762 66.1479 55.2962 69.0821 55.2962C76.8921 55.2962 84.0549 53.3606 89.5348 49.8413C91.1745 52.2608 93.6772 53.9764 96.6545 54.5483H96.7408C99.6749 55.0322 102.609 55.2962 105.543 55.2962C115.899 55.2962 125.047 51.9089 130.699 46.0141C135.489 51.7769 142.522 55.4281 150.332 55.4281C156.287 55.4281 161.81 53.3166 166.211 49.7533C167.721 52.3488 170.267 54.3284 173.244 54.9882H173.288C174.755 55.2962 176.308 55.4281 178.034 55.4281C179.458 55.4281 180.709 55.2962 181.615 55.2082C181.874 55.1642 182.133 55.1642 182.349 55.1642L182.824 55.1202L183.298 55.0322C188.045 54.1084 191.626 50.0613 192.057 45.1783C192.057 45.1343 192.057 45.1343 192.057 45.0903C193.783 44.7824 195.466 44.1665 197.063 43.3307C197.192 44.2105 197.365 45.0903 197.667 45.9262C198.961 49.7093 201.852 52.6567 205.822 54.2404C207.548 54.9442 209.317 55.2522 211.043 55.2522C214.064 55.2522 217.041 54.2404 219.5 52.2608C222.65 53.8445 226.793 54.8123 229.08 55.2962L229.382 55.3841L229.77 55.4281C230.029 55.4721 230.503 55.5161 231.064 55.5161C231.237 55.5161 231.41 55.5161 231.582 55.5161C235.336 55.2962 238.572 53.0526 240.126 49.6214V49.5774C240.385 49.0055 240.644 48.3017 240.946 47.4658C241.118 47.8617 241.248 48.3016 241.42 48.6976L241.507 48.8735C243.276 53.0966 247.461 55.78 251.949 55.5161H252.208C256.997 55.1202 261.096 52.8327 262.693 51.8649C266.663 49.4894 268.691 44.8264 267.784 40.2954Z" fill="white"/>
<path d="M69.1683 46.718C66.7951 46.718 64.3356 46.498 61.8329 46.0581C60.5816 45.8382 59.6323 44.6944 59.6755 43.3747L60.3659 14.6049C60.3659 14.5169 60.3659 11.6575 61.9624 9.98586C62.7391 9.19403 63.7315 8.79811 64.9397 8.79811C84.1411 8.84211 90.0957 17.6402 91.7354 25.0746C93.0299 31.0134 91.8648 36.1603 88.2834 39.9874C84.2274 44.2985 77.1509 46.718 69.1683 46.718ZM71.7573 19.9717C71.2826 19.9717 70.8943 20.1037 70.6354 20.3676C70.3765 20.6316 70.2039 21.0715 70.2039 21.5114L70.2902 34.4886C70.2902 35.8083 71.0237 35.8963 71.2395 35.9403C80.9481 35.9403 81.4659 30.0896 81.509 29.8256V29.7816C81.9836 26.8342 81.4227 21.5994 72.2319 20.0157C72.0593 20.0157 71.9299 19.9717 71.7573 19.9717Z" fill="#F7941D"/>
<path d="M32.4483 47.4218C32.0168 47.4218 31.5853 47.2899 31.2833 46.9819C29.5573 45.4863 25.0698 41.1752 21.0137 33.5648L19.0289 35.6324C19.072 36.9961 19.2878 42.7588 19.1152 45.1343C19.072 45.7942 18.5974 46.3661 17.9501 46.498C16.6557 46.806 13.2037 47.3779 10.097 46.4101C9.49288 46.2341 9.06139 45.6622 9.01824 44.9584C8.84565 40.5153 8.02581 17.9921 8.93194 10.8217C9.01824 10.0738 9.57918 9.45797 10.2696 9.28201C12.0387 8.8861 15.3612 8.31422 17.7775 9.19403C18.4248 9.41398 18.8994 10.0738 18.9426 10.7777C19.0289 12.4053 19.2446 16.1885 19.072 19.4878C21.1432 17.0244 26.019 11.3936 28.91 9.36999C29.6867 8.79811 30.8086 8.8421 31.5853 9.41398C33.0955 10.5137 35.8571 12.7133 37.1515 14.5169C37.6693 15.2647 37.583 16.2765 36.9358 17.0244L28.8669 25.7345C28.8237 25.7785 28.8237 25.8225 28.8669 25.8665C30.9812 28.242 37.9282 36.2042 39.6542 39.1516C40.0425 39.8115 39.9994 40.6473 39.5248 41.3072C38.5755 42.6269 35.9865 45.8822 33.225 47.2459C32.9661 47.3779 32.7072 47.4218 32.4483 47.4218Z" fill="#E12B1C"/>
<path d="M251.603 46.85C250.697 46.894 249.834 46.3221 249.446 45.4423C248.971 44.2545 248.065 41.7471 247.073 38.2718L234.818 38.9757C234.43 40.3394 233.308 44.2985 232.531 45.9702C232.229 46.63 231.539 46.9819 230.849 46.85C229.209 46.498 225.196 45.5742 222.866 44.2985C222.176 43.9466 221.873 43.1108 222.132 42.3629C223.772 37.9639 232.057 15.7046 235.638 10.5577C235.983 10.0738 236.458 9.72192 237.019 9.54596C238.443 9.10605 241.291 8.44619 244.441 9.01807C245.304 9.15004 245.994 9.72192 246.382 10.5137C249.057 16.2325 257.989 35.3684 259.413 42.011C259.586 42.9788 259.198 43.9466 258.378 44.4305C257.083 45.3103 254.451 46.674 251.603 46.85ZM238.227 28.4179L243.621 28.11L240.902 20.8955L238.227 28.4179Z" fill="#367BF6"/>
<path d="M105.629 46.718C103.256 46.718 100.753 46.498 98.2939 46.0581C97.0425 45.8382 96.0933 44.6944 96.0933 43.3747L96.7837 14.5609C96.7837 14.4729 96.7837 11.6135 98.3802 9.94187C99.1569 9.15004 100.149 8.75412 101.357 8.75412C120.602 8.75412 126.557 17.6402 128.196 25.0746C129.491 31.0133 128.326 36.2042 124.744 40.0314C120.731 44.2985 113.612 46.718 105.629 46.718ZM108.218 19.9277C107.744 19.9277 107.355 20.0597 107.096 20.3236C106.837 20.5876 106.665 21.0275 106.665 21.4674L106.751 34.4886C106.751 35.8083 107.485 35.8963 107.7 35.9403C117.409 35.9403 117.97 30.0895 117.97 29.8256V29.7816C118.445 26.8342 117.884 21.5994 108.693 20.0157C108.563 19.9717 108.391 19.9277 108.218 19.9277Z" fill="#FFCB05"/>
<path d="M178.12 46.806C177.171 46.806 176.135 46.718 175.143 46.498C174.15 46.2781 173.374 45.3983 173.331 44.3425C173.287 43.4187 171.907 22.0833 172.468 14.2529C172.597 12.7133 173.503 11.4376 174.884 10.8657C184.808 6.73056 191.842 9.54596 196.027 12.6253C200.558 15.9686 202.284 20.8955 200.774 26.1744C199.177 31.7612 194.301 36.3802 189.684 36.6442C189.382 36.6881 186.923 36.9961 183.686 36.6442C183.773 38.3158 183.945 42.011 183.73 44.2985C183.643 45.3543 182.867 46.2341 181.874 46.4101C181.011 46.586 179.63 46.806 178.12 46.806ZM185.585 18.564C184.895 18.564 184.161 18.608 183.384 18.74C183.125 18.784 182.867 19.0039 182.823 19.3119C182.435 21.8193 182.78 25.2946 182.91 26.6583C182.953 26.9662 183.125 27.1862 183.384 27.2302C184.334 27.4501 185.844 27.6261 187.354 27.2742C188.778 26.9222 190.072 25.8665 190.633 24.5907C191.151 23.447 191.065 22.1273 190.418 20.8075C189.727 19.3119 188.088 18.564 185.585 18.564Z" fill="#38DABD"/>
<path d="M150.418 8.66614C140.58 8.66614 132.641 17.2003 132.641 27.7141C132.641 38.2278 140.623 46.762 150.418 46.762C160.256 46.762 168.196 38.2278 168.196 27.7141C168.196 17.2003 160.213 8.66614 150.418 8.66614ZM150.418 35.3244C146.405 35.3244 143.126 31.9372 143.126 27.758C143.126 23.5789 146.405 20.1917 150.418 20.1917C154.431 20.1917 157.711 23.5789 157.711 27.758C157.711 31.9372 154.431 35.3244 150.418 35.3244Z" fill="#60D03D"/>
<path d="M210.05 46.674C209.274 46.674 208.54 46.674 207.936 46.63C207.073 46.586 206.34 45.9701 206.34 45.2223C206.167 41.3951 205.563 28.6819 205.692 25.3826C205.735 24.7227 206.21 24.1508 206.944 23.9749C208.281 23.6669 211.733 23.0511 215.099 23.9309C215.789 24.1068 216.307 24.7227 216.307 25.3826V45.1343C216.307 45.9701 215.573 46.63 214.667 46.63C213.502 46.674 211.69 46.674 210.05 46.674Z" fill="#4EABF8"/>
<path d="M215.703 12.2294C216.652 15.0448 215.746 18.1681 212.941 19.1799C210.137 20.1917 206.685 18.652 205.736 15.8366C204.786 13.0212 206.081 10.1178 208.885 9.10605C211.69 8.09426 214.754 9.41398 215.703 12.2294Z" fill="#4EABF8"/>
<path d="M48.4999 46.674C47.7232 46.674 46.9897 46.674 46.3856 46.63C45.5226 46.586 44.789 45.9701 44.789 45.2223C44.6165 41.3951 44.0124 28.6819 44.1418 25.3826C44.185 24.7227 44.6596 24.1508 45.3931 23.9749C46.7308 23.6669 50.1827 23.0511 53.5483 23.9309C54.2387 24.1068 54.7565 24.7227 54.7565 25.3826V45.1343C54.7565 45.9701 54.023 46.63 53.1169 46.63C51.9518 46.674 50.1396 46.674 48.4999 46.674Z" fill="#F26722"/>
<path d="M54.4976 12.2294C55.4469 15.0448 54.2387 18.0361 51.434 19.0479C48.6293 20.0597 45.3068 18.652 44.3575 15.8366C43.4082 13.0212 44.9185 9.94187 47.7232 8.97408C50.5279 8.00628 53.5483 9.45797 54.4976 12.2294Z" fill="#F26722"/>
</g>
<defs>
<clipPath id="clip0_39_2008">
<rect width="268" height="56" fill="white"/>
</clipPath>
</defs>
</svg>
